<?xml version="1.0" encoding="UTF-8" standalone="no"?>
<!DOCTYPE svg PUBLIC "-//W3C//DTD SVG 1.1//EN"
 "http://www.w3.org/Graphics/SVG/1.1/DTD/svg11.dtd">
<!-- Generated by graphviz version 2.43.0 (0)
 -->
<!-- Title: g Pages: 1 -->
<svg width="1265pt" height="299pt"
 viewBox="0.00 0.00 1265.20 299.20" xmlns="http://www.w3.org/2000/svg" xmlns:xlink="http://www.w3.org/1999/xlink">
<g id="graph0" class="graph" transform="scale(1 1) rotate(0) translate(21.6 277.6)">
<title>g</title>
<polygon fill="#0d1117" stroke="transparent" points="-21.6,21.6 -21.6,-277.6 1243.6,-277.6 1243.6,21.6 -21.6,21.6"/>
<text text-anchor="middle" x="611" y="-236" font-family="Helvetica,sans-Serif" font-size="20.00" fill="#e6edf3">Pre&#45;mount secret scan</text>
<!-- p -->
<g id="node1" class="node">
<title>p</title>
<path fill="#13294d" stroke="#58a6ff" stroke-width="2" d="M312,-141C312,-141 12,-141 12,-141 6,-141 0,-135 0,-129 0,-129 0,-97 0,-97 0,-91 6,-85 12,-85 12,-85 312,-85 312,-85 318,-85 324,-91 324,-97 324,-97 324,-129 324,-129 324,-135 318,-141 312,-141"/>
<text text-anchor="middle" x="162" y="-116.8" font-family="Helvetica,sans-Serif" font-size="14.00" fill="#e6edf3">3 candidate paths</text>
<text text-anchor="middle" x="162" y="-101.8" font-family="Helvetica,sans-Serif" font-size="14.00" fill="#e6edf3">(Documents, Downloads, research_notes)</text>
</g>
<!-- a -->
<g id="node2" class="node">
<title>a</title>
<path fill="#161b22" stroke="#30363d" stroke-width="2" d="M623.5,-222C623.5,-222 412.5,-222 412.5,-222 406.5,-222 400.5,-216 400.5,-210 400.5,-210 400.5,-178 400.5,-178 400.5,-172 406.5,-166 412.5,-166 412.5,-166 623.5,-166 623.5,-166 629.5,-166 635.5,-172 635.5,-178 635.5,-178 635.5,-210 635.5,-210 635.5,-216 629.5,-222 623.5,-222"/>
<text text-anchor="middle" x="518" y="-197.8" font-family="Helvetica,sans-Serif" font-size="14.00" fill="#e6edf3">filenames to depth 6</text>
<text text-anchor="middle" x="518" y="-182.8" font-family="Helvetica,sans-Serif" font-size="14.00" fill="#e6edf3">.env, id_rsa, *.pem, .netrc ...</text>
</g>
<!-- p&#45;&gt;a -->
<g id="edge1" class="edge">
<title>p&#45;&gt;a</title>
<path fill="none" stroke="#8b949e" stroke-width="1.6" d="M285.82,-141.1C319.91,-148.9 356.98,-157.39 391.24,-165.22"/>
<polygon fill="#8b949e" stroke="#8b949e" stroke-width="1.6" points="390.88,-168.37 400.36,-167.31 392.28,-162.23 390.88,-168.37"/>
</g>
<!-- b -->
<g id="node3" class="node">
<title>b</title>
<path fill="#161b22" stroke="#30363d" stroke-width="2" d="M617.5,-133.5C617.5,-133.5 418.5,-133.5 418.5,-133.5 412.5,-133.5 406.5,-127.5 406.5,-121.5 406.5,-121.5 406.5,-104.5 406.5,-104.5 406.5,-98.5 412.5,-92.5 418.5,-92.5 418.5,-92.5 617.5,-92.5 617.5,-92.5 623.5,-92.5 629.5,-98.5 629.5,-104.5 629.5,-104.5 629.5,-121.5 629.5,-121.5 629.5,-127.5 623.5,-133.5 617.5,-133.5"/>
<text text-anchor="middle" x="518" y="-109.3" font-family="Helvetica,sans-Serif" font-size="14.00" fill="#e6edf3">symlinks escaping the tree</text>
</g>
<!-- p&#45;&gt;b -->
<g id="edge2" class="edge">
<title>p&#45;&gt;b</title>
<path fill="none" stroke="#8b949e" stroke-width="1.6" d="M324.2,-113C348.77,-113 373.75,-113 397.23,-113"/>
<polygon fill="#8b949e" stroke="#8b949e" stroke-width="1.6" points="397.49,-116.15 406.49,-113 397.49,-109.85 397.49,-116.15"/>
</g>
<!-- c -->
<g id="node4" class="node">
<title>c</title>
<path fill="#161b22" stroke="#30363d" stroke-width="2" d="M657,-60C657,-60 379,-60 379,-60 373,-60 367,-54 367,-48 367,-48 367,-16 367,-16 367,-10 373,-4 379,-4 379,-4 657,-4 657,-4 663,-4 669,-10 669,-16 669,-16 669,-48 669,-48 669,-54 663,-60 657,-60"/>
<text text-anchor="middle" x="518" y="-35.8" font-family="Helvetica,sans-Serif" font-size="14.00" fill="#e6edf3">content patterns</text>
<text text-anchor="middle" x="518" y="-20.8" font-family="Helvetica,sans-Serif" font-size="14.00" fill="#e6edf3">AKIA, sk&#45;, ghp_, PRIVATE KEY, xox, hf_</text>
</g>
<!-- p&#45;&gt;c -->
<g id="edge3" class="edge">
<title>p&#45;&gt;c</title>
<path fill="none" stroke="#8b949e" stroke-width="1.6" d="M285.82,-84.9C317.94,-77.55 352.71,-69.59 385.27,-62.14"/>
<polygon fill="#8b949e" stroke="#8b949e" stroke-width="1.6" points="386.33,-65.13 394.4,-60.05 384.92,-58.99 386.33,-65.13"/>
</g>
<!-- f1 -->
<g id="node5" class="node">
<title>f1</title>
<path fill="#161b22" stroke="#f85149" stroke-width="2" d="M905.5,-226C905.5,-226 774.5,-226 774.5,-226 768.5,-226 762.5,-220 762.5,-214 762.5,-214 762.5,-182 762.5,-182 762.5,-176 768.5,-170 774.5,-170 774.5,-170 905.5,-170 905.5,-170 911.5,-170 917.5,-176 917.5,-182 917.5,-182 917.5,-214 917.5,-214 917.5,-220 911.5,-226 905.5,-226"/>
<text text-anchor="middle" x="840" y="-201.8" font-family="Helvetica,sans-Serif" font-size="14.00" fill="#e6edf3">one real .env</text>
<text text-anchor="middle" x="840" y="-186.8" font-family="Helvetica,sans-Serif" font-size="14.00" fill="#e6edf3">(API key present)</text>
</g>
<!-- a&#45;&gt;f1 -->
<g id="edge4" class="edge">
<title>a&#45;&gt;f1</title>
<path fill="none" stroke="#8b949e" stroke-width="1.6" d="M635.89,-195.46C674.73,-195.95 717.24,-196.48 753.28,-196.93"/>
<polygon fill="#8b949e" stroke="#8b949e" stroke-width="1.6" points="753.26,-200.08 762.3,-197.04 753.34,-193.78 753.26,-200.08"/>
</g>
<!-- f3 -->
<g id="node7" class="node">
<title>f3</title>
<path fill="#161b22" stroke="#d29922" stroke-width="2" d="M948.5,-141C948.5,-141 731.5,-141 731.5,-141 725.5,-141 719.5,-135 719.5,-129 719.5,-129 719.5,-97 719.5,-97 719.5,-91 725.5,-85 731.5,-85 731.5,-85 948.5,-85 948.5,-85 954.5,-85 960.5,-91 960.5,-97 960.5,-97 960.5,-129 960.5,-129 960.5,-135 954.5,-141 948.5,-141"/>
<text text-anchor="middle" x="840" y="-116.8" font-family="Helvetica,sans-Serif" font-size="14.00" fill="#e6edf3">one symlink out of the tree</text>
<text text-anchor="middle" x="840" y="-101.8" font-family="Helvetica,sans-Serif" font-size="14.00" fill="#e6edf3">(nginx backup, points at /etc)</text>
</g>
<!-- b&#45;&gt;f3 -->
<g id="edge6" class="edge">
<title>b&#45;&gt;f3</title>
<path fill="none" stroke="#8b949e" stroke-width="1.6" d="M629.57,-113C655.62,-113 683.61,-113 710.38,-113"/>
<polygon fill="#8b949e" stroke="#8b949e" stroke-width="1.6" points="710.41,-116.15 719.41,-113 710.41,-109.85 710.41,-116.15"/>
</g>
<!-- f2 -->
<g id="node6" class="node">
<title>f2</title>
<path fill="#161b22" stroke="#3fb950" stroke-width="2" d="M956,-56C956,-56 724,-56 724,-56 718,-56 712,-50 712,-44 712,-44 712,-12 712,-12 712,-6 718,0 724,0 724,0 956,0 956,0 962,0 968,-6 968,-12 968,-12 968,-44 968,-44 968,-50 962,-56 956,-56"/>
<text text-anchor="middle" x="840" y="-31.8" font-family="Helvetica,sans-Serif" font-size="14.00" fill="#e6edf3">AKIA hit = key ID inside an</text>
<text text-anchor="middle" x="840" y="-16.8" font-family="Helvetica,sans-Serif" font-size="14.00" fill="#e6edf3">expired pre&#45;signed URL: benign</text>
</g>
<!-- c&#45;&gt;f2 -->
<g id="edge5" class="edge">
<title>c&#45;&gt;f2</title>
<path fill="none" stroke="#8b949e" stroke-width="1.6" d="M669.16,-30.12C680.33,-29.98 691.55,-29.84 702.63,-29.7"/>
<polygon fill="#8b949e" stroke="#8b949e" stroke-width="1.6" points="702.93,-32.85 711.89,-29.59 702.85,-26.55 702.93,-32.85"/>
</g>
<!-- act -->
<g id="node8" class="node">
<title>act</title>
<path fill="#161b22" stroke="#bc8cff" stroke-width="2" stroke-dasharray="5,2" d="M1210,-226C1210,-226 1023,-226 1023,-226 1017,-226 1011,-220 1011,-214 1011,-214 1011,-182 1011,-182 1011,-176 1017,-170 1023,-170 1023,-170 1210,-170 1210,-170 1216,-170 1222,-176 1222,-182 1222,-182 1222,-214 1222,-214 1222,-220 1216,-226 1210,-226"/>
<text text-anchor="middle" x="1116.5" y="-201.8" font-family="Helvetica,sans-Serif" font-size="14.00" fill="#e6edf3">mask .env with /dev/null;</text>
<text text-anchor="middle" x="1116.5" y="-186.8" font-family="Helvetica,sans-Serif" font-size="14.00" fill="#e6edf3">rotate the key later</text>
</g>
<!-- f1&#45;&gt;act -->
<g id="edge7" class="edge">
<title>f1&#45;&gt;act</title>
<path fill="none" stroke="#8b949e" stroke-width="1.6" d="M917.83,-198C943.88,-198 973.55,-198 1001.85,-198"/>
<polygon fill="#8b949e" stroke="#8b949e" stroke-width="1.6" points="1001.98,-201.15 1010.98,-198 1001.98,-194.85 1001.98,-201.15"/>
</g>
</g>
</svg>
