<?xml version="1.0" encoding="UTF-8" standalone="no"?>
<!DOCTYPE svg PUBLIC "-//W3C//DTD SVG 1.1//EN"
 "http://www.w3.org/Graphics/SVG/1.1/DTD/svg11.dtd">
<!-- Generated by graphviz version 2.43.0 (0)
 -->
<!-- Title: g Pages: 1 -->
<svg width="1914pt" height="129pt"
 viewBox="0.00 0.00 1914.20 129.20" xmlns="http://www.w3.org/2000/svg" xmlns:xlink="http://www.w3.org/1999/xlink">
<g id="graph0" class="graph" transform="scale(1 1) rotate(0) translate(21.6 107.6)">
<title>g</title>
<polygon fill="#0d1117" stroke="transparent" points="-21.6,21.6 -21.6,-107.6 1892.6,-107.6 1892.6,21.6 -21.6,21.6"/>
<text text-anchor="middle" x="935.5" y="-66" font-family="Helvetica,sans-Serif" font-size="20.00" fill="#e6edf3">Things that went wrong, in order</text>
<!-- a -->
<g id="node1" class="node">
<title>a</title>
<path fill="#161b22" stroke="#d29922" stroke-width="2" d="M180,-56C180,-56 12,-56 12,-56 6,-56 0,-50 0,-44 0,-44 0,-12 0,-12 0,-6 6,0 12,0 12,0 180,0 180,0 186,0 192,-6 192,-12 192,-12 192,-44 192,-44 192,-50 186,-56 180,-56"/>
<text text-anchor="middle" x="96" y="-31.8" font-family="Helvetica,sans-Serif" font-size="14.00" fill="#e6edf3">sudo systemctl restart</text>
<text text-anchor="middle" x="96" y="-16.8" font-family="Helvetica,sans-Serif" font-size="14.00" fill="#e6edf3">&#45;&gt; unit not found</text>
</g>
<!-- b -->
<g id="node2" class="node">
<title>b</title>
<path fill="#161b22" stroke="#3fb950" stroke-width="2" d="M376,-56C376,-56 247,-56 247,-56 241,-56 235,-50 235,-44 235,-44 235,-12 235,-12 235,-6 241,0 247,0 247,0 376,0 376,0 382,0 388,-6 388,-12 388,-12 388,-44 388,-44 388,-50 382,-56 376,-56"/>
<text text-anchor="middle" x="311.5" y="-31.8" font-family="Helvetica,sans-Serif" font-size="14.00" fill="#e6edf3">it is a USER unit:</text>
<text text-anchor="middle" x="311.5" y="-16.8" font-family="Helvetica,sans-Serif" font-size="14.00" fill="#e6edf3">systemctl &#45;&#45;user</text>
</g>
<!-- a&#45;&gt;b -->
<g id="edge1" class="edge">
<title>a&#45;&gt;b</title>
<path fill="none" stroke="#8b949e" stroke-width="1.6" d="M192.2,-28C203.32,-28 214.61,-28 225.58,-28"/>
<polygon fill="#8b949e" stroke="#8b949e" stroke-width="1.6" points="225.7,-31.15 234.7,-28 225.7,-24.85 225.7,-31.15"/>
</g>
<!-- c -->
<g id="node3" class="node">
<title>c</title>
<path fill="#161b22" stroke="#f85149" stroke-width="2" d="M576,-56C576,-56 443,-56 443,-56 437,-56 431,-50 431,-44 431,-44 431,-12 431,-12 431,-6 437,0 443,0 443,0 576,0 576,0 582,0 588,-6 588,-12 588,-12 588,-44 588,-44 588,-50 582,-56 576,-56"/>
<text text-anchor="middle" x="509.5" y="-31.8" font-family="Helvetica,sans-Serif" font-size="14.00" fill="#e6edf3">first CLI test:</text>
<text text-anchor="middle" x="509.5" y="-16.8" font-family="Helvetica,sans-Serif" font-size="14.00" fill="#e6edf3">fabricated output</text>
</g>
<!-- b&#45;&gt;c -->
<g id="edge2" class="edge">
<title>b&#45;&gt;c</title>
<path fill="none" stroke="#8b949e" stroke-width="1.6" d="M388.28,-28C399.22,-28 410.55,-28 421.69,-28"/>
<polygon fill="#8b949e" stroke="#8b949e" stroke-width="1.6" points="421.98,-31.15 430.98,-28 421.98,-24.85 421.98,-31.15"/>
</g>
<!-- d -->
<g id="node4" class="node">
<title>d</title>
<path fill="#161b22" stroke="#3fb950" stroke-width="2" d="M816,-56C816,-56 643,-56 643,-56 637,-56 631,-50 631,-44 631,-44 631,-12 631,-12 631,-6 637,0 643,0 643,0 816,0 816,0 822,0 828,-6 828,-12 828,-12 828,-44 828,-44 828,-50 822,-56 816,-56"/>
<text text-anchor="middle" x="729.5" y="-31.8" font-family="Helvetica,sans-Serif" font-size="14.00" fill="#e6edf3">forced terminal toolset;</text>
<text text-anchor="middle" x="729.5" y="-16.8" font-family="Helvetica,sans-Serif" font-size="14.00" fill="#e6edf3">verified from host</text>
</g>
<!-- c&#45;&gt;d -->
<g id="edge3" class="edge">
<title>c&#45;&gt;d</title>
<path fill="none" stroke="#8b949e" stroke-width="1.6" d="M588.28,-28C599.18,-28 610.54,-28 621.86,-28"/>
<polygon fill="#8b949e" stroke="#8b949e" stroke-width="1.6" points="621.93,-31.15 630.93,-28 621.93,-24.85 621.93,-31.15"/>
</g>
<!-- e -->
<g id="node5" class="node">
<title>e</title>
<path fill="#161b22" stroke="#f0883e" stroke-width="2" d="M1133,-56C1133,-56 883,-56 883,-56 877,-56 871,-50 871,-44 871,-44 871,-12 871,-12 871,-6 877,0 883,0 883,0 1133,0 1133,0 1139,0 1145,-6 1145,-12 1145,-12 1145,-44 1145,-44 1145,-50 1139,-56 1133,-56"/>
<text text-anchor="middle" x="1008" y="-31.8" font-family="Helvetica,sans-Serif" font-size="14.00" fill="#e6edf3">2nd container created by gateway</text>
<text text-anchor="middle" x="1008" y="-16.8" font-family="Helvetica,sans-Serif" font-size="14.00" fill="#e6edf3">from stale config</text>
</g>
<!-- d&#45;&gt;e -->
<g id="edge4" class="edge">
<title>d&#45;&gt;e</title>
<path fill="none" stroke="#8b949e" stroke-width="1.6" d="M828.37,-28C839.05,-28 850.09,-28 861.18,-28"/>
<polygon fill="#8b949e" stroke="#8b949e" stroke-width="1.6" points="861.52,-31.15 870.52,-28 861.52,-24.85 861.52,-31.15"/>
</g>
<!-- f -->
<g id="node6" class="node">
<title>f</title>
<path fill="#161b22" stroke="#3fb950" stroke-width="2" d="M1360,-56C1360,-56 1200,-56 1200,-56 1194,-56 1188,-50 1188,-44 1188,-44 1188,-12 1188,-12 1188,-6 1194,0 1200,0 1200,0 1360,0 1360,0 1366,0 1372,-6 1372,-12 1372,-12 1372,-44 1372,-44 1372,-50 1366,-56 1360,-56"/>
<text text-anchor="middle" x="1280" y="-31.8" font-family="Helvetica,sans-Serif" font-size="14.00" fill="#e6edf3">restart gateway,</text>
<text text-anchor="middle" x="1280" y="-16.8" font-family="Helvetica,sans-Serif" font-size="14.00" fill="#e6edf3">remove old container</text>
</g>
<!-- e&#45;&gt;f -->
<g id="edge5" class="edge">
<title>e&#45;&gt;f</title>
<path fill="none" stroke="#8b949e" stroke-width="1.6" d="M1145.19,-28C1156.45,-28 1167.7,-28 1178.63,-28"/>
<polygon fill="#8b949e" stroke="#8b949e" stroke-width="1.6" points="1178.72,-31.15 1187.72,-28 1178.72,-24.85 1178.72,-31.15"/>
</g>
<!-- g -->
<g id="node7" class="node">
<title>g</title>
<path fill="#161b22" stroke="#d29922" stroke-width="2" d="M1629,-56C1629,-56 1427,-56 1427,-56 1421,-56 1415,-50 1415,-44 1415,-44 1415,-12 1415,-12 1415,-6 1421,0 1427,0 1427,0 1629,0 1629,0 1635,0 1641,-6 1641,-12 1641,-12 1641,-44 1641,-44 1641,-50 1635,-56 1629,-56"/>
<text text-anchor="middle" x="1528" y="-31.8" font-family="Helvetica,sans-Serif" font-size="14.00" fill="#e6edf3">gateway has no messaging</text>
<text text-anchor="middle" x="1528" y="-16.8" font-family="Helvetica,sans-Serif" font-size="14.00" fill="#e6edf3">platform: cannot chat&#45;test</text>
</g>
<!-- f&#45;&gt;g -->
<g id="edge6" class="edge">
<title>f&#45;&gt;g</title>
<path fill="none" stroke="#8b949e" stroke-width="1.6" d="M1372.25,-28C1383.04,-28 1394.18,-28 1405.31,-28"/>
<polygon fill="#8b949e" stroke="#8b949e" stroke-width="1.6" points="1405.64,-31.15 1414.64,-28 1405.64,-24.85 1405.64,-31.15"/>
</g>
<!-- h -->
<g id="node8" class="node">
<title>h</title>
<path fill="#161b22" stroke="#3fb950" stroke-width="2" d="M1859,-48.5C1859,-48.5 1696,-48.5 1696,-48.5 1690,-48.5 1684,-42.5 1684,-36.5 1684,-36.5 1684,-19.5 1684,-19.5 1684,-13.5 1690,-7.5 1696,-7.5 1696,-7.5 1859,-7.5 1859,-7.5 1865,-7.5 1871,-13.5 1871,-19.5 1871,-19.5 1871,-36.5 1871,-36.5 1871,-42.5 1865,-48.5 1859,-48.5"/>
<text text-anchor="middle" x="1777.5" y="-24.3" font-family="Helvetica,sans-Serif" font-size="14.00" fill="#e6edf3">cron one&#45;shot instead</text>
</g>
<!-- g&#45;&gt;h -->
<g id="edge7" class="edge">
<title>g&#45;&gt;h</title>
<path fill="none" stroke="#8b949e" stroke-width="1.6" d="M1641.16,-28C1652.35,-28 1663.67,-28 1674.75,-28"/>
<polygon fill="#8b949e" stroke="#8b949e" stroke-width="1.6" points="1674.99,-31.15 1683.99,-28 1674.99,-24.85 1674.99,-31.15"/>
</g>
</g>
</svg>
